<svg width="1450" height="92" viewBox="0 0 1450 92" fill="none" xmlns="http://www.w3.org/2000/svg">
<g clip-path="url(#clip0_393_9022)">
<path d="M-2 53.5C-2 53.5 -16 48.0006 -17 44.0006L-38.5 80.4555L-32 94.0007H1450V42.1621H1434.63L1430.44 48.7L1418.34 50.101L1408.56 42.6291H1373.64L1364.79 48.7L1353.15 44.4971L1343.83 46.832L1337.32 44.4971L1324.28 46.832L1316.36 44.4971L1312.17 46.832H1303.79L1294.94 50.101L1266.54 51.035L1251.17 48.7L1212.06 50.101L1199.02 46.832L1194.83 48.7L1189.71 46.832H1145.94L1138.02 44.4971C1124.61 54.9577 1114.12 57.2615 1110.55 57.1059L1105.89 54.7709H1086.8L1083.08 50.101L1072.83 53.3699L1067.71 51.035L1055.14 54.7709H1044.43L1029.99 58.5068L997.865 61.3088L984.361 69.7147L970.392 66.9127L955.491 63.1768C953.008 63.4881 947.575 64.1107 945.713 64.1107C943.85 64.1107 938.418 62.2428 935.935 61.3088H925.69L922.897 63.1768L914.981 62.2428L910.324 58.5068L900.08 66.9127L892.164 65.5117L887.042 66.9127L877.264 64.1107L868.417 66.9127L860.501 65.5117H853.516H810.212L800.434 63.1768L793.449 58.5068H787.396L775.755 61.3088L760.854 62.2428L758.526 65.5117H746.419L740.366 63.1768C737.883 62.8654 732.73 62.2428 731.985 62.2428C731.24 62.2428 720.809 62.8654 715.687 63.1768L687.749 54.7709L678.902 58.5068L666.329 54.7709L661.673 59.4408H650.498L645.376 61.3088L633.269 58.0399L623.491 46.365L620.231 46.832L617.437 45.431L616.972 42.6291H612.781L608.59 46.365L604.399 43.5631L600.209 46.365H596.949C596.577 46.365 591.827 43.5631 589.499 42.1621L579.255 44.9641C576.306 44.6527 570.222 44.0301 569.477 44.0301C568.732 44.0301 567.614 43.0961 567.148 42.6291H537.347L529.897 48.7L527.103 49.167C525.613 48.4198 523.068 46.9877 521.981 46.365L492.18 45.431L488.921 43.5631C486.438 43.2518 481.378 42.6291 481.005 42.6291C480.633 42.6291 472.468 44.497 468.433 45.431L464.242 42.6291H430.716L428.388 45.431H425.594V42.6291H387.412L378.099 44.4971L366.458 43.5631L362.267 44.4971H338.52L333.398 50.101L323.619 51.9689L321.291 49.167L294.284 56.1719C293.042 58.3512 290.466 62.7098 290.093 62.7098C289.721 62.7098 284.661 64.2664 282.177 65.0447L277.987 62.7098L274.727 65.9787L271.933 64.1107H268.208L260.292 71.1156L253.308 73.4506L248.651 77.6535L241.201 79.0545L224.438 76.2526C220.092 77.3422 211.214 79.5215 210.469 79.5215C209.724 79.5215 202.398 82.9461 198.828 84.6584L193.706 84.1914L181.134 76.2526L167.164 77.1866L155.523 72.5166H147.142L144.814 74.3846H126.654L116.875 71.5826L109.425 73.9176L108.96 72.5166C106.631 72.8279 100.671 73.544 95.456 73.9176C90.2408 74.2912 81.1764 78.4319 77.2961 80.4555H69.8458C68.9146 80.4555 67.5177 78.1205 66.5864 78.1205C65.8414 78.1205 9.5 74.3846 5 67.5L-2 53.5Z" fill="white"/>
</g>
<defs>
<clipPath id="clip0_393_9022">
<rect width="1450" height="92" fill="white"/>
</clipPath>
</defs>
</svg>
