<svg width="1440" height="92" viewBox="0 0 1440 92" fill="none" xmlns="http://www.w3.org/2000/svg">
<g clip-path="url(#clip0_345_16326)">
<path d="M-7 38.5C-7 38.5 -21 43.9994 -22 47.9994L-43.5 11.5445L-37 -2.00073H1445V49.8379H1429.63L1425.44 43.3L1413.34 41.899L1403.56 49.3709H1368.64L1359.79 43.3L1348.15 47.5029L1338.83 45.168L1332.32 47.5029L1319.28 45.168L1311.36 47.5029L1307.17 45.168H1298.79L1289.94 41.899L1261.54 40.965L1246.17 43.3L1207.06 41.899L1194.02 45.168L1189.83 43.3L1184.71 45.168H1140.94L1133.02 47.5029C1119.61 37.0423 1109.12 34.7385 1105.55 34.8941L1100.89 37.2291H1081.8L1078.08 41.899L1067.83 38.6301L1062.71 40.965L1050.14 37.2291H1039.43L1024.99 33.4932L992.865 30.6912L979.361 22.2853L965.392 25.0873L950.491 28.8232C948.008 28.5119 942.575 27.8893 940.713 27.8893C938.85 27.8893 933.418 29.7572 930.935 30.6912H920.69L917.897 28.8232L909.981 29.7572L905.324 33.4932L895.08 25.0873L887.164 26.4883L882.042 25.0873L872.264 27.8893L863.417 25.0873L855.501 26.4883H848.516H805.212L795.434 28.8232L788.449 33.4932H782.396L770.755 30.6912L755.854 29.7572L753.526 26.4883H741.419L735.366 28.8232C732.883 29.1346 727.73 29.7572 726.985 29.7572C726.24 29.7572 715.809 29.1346 710.687 28.8232L682.749 37.2291L673.902 33.4932L661.329 37.2291L656.673 32.5592H645.498L640.376 30.6912L628.269 33.9601L618.491 45.635L615.231 45.168L612.437 46.569L611.972 49.3709H607.781L603.59 45.635L599.399 48.4369L595.209 45.635H591.949C591.577 45.635 586.827 48.4369 584.499 49.8379L574.255 47.0359C571.306 47.3473 565.222 47.9699 564.477 47.9699C563.732 47.9699 562.614 48.9039 562.148 49.3709H532.347L524.897 43.3L522.103 42.833C520.613 43.5802 518.068 45.0123 516.981 45.635L487.18 46.569L483.921 48.4369C481.438 48.7482 476.378 49.3709 476.005 49.3709C475.633 49.3709 467.468 47.503 463.433 46.569L459.242 49.3709H425.716L423.388 46.569H420.594V49.3709H382.412L373.099 47.5029L361.458 48.4369L357.267 47.5029H333.52L328.398 41.899L318.619 40.0311L316.291 42.833L289.284 35.8281C288.042 33.6488 285.466 29.2902 285.093 29.2902C284.721 29.2902 279.661 27.7336 277.177 26.9553L272.987 29.2902L269.727 26.0213L266.933 27.8893H263.208L255.292 20.8844L248.308 18.5494L243.651 14.3465L236.201 12.9455L219.438 15.7474C215.092 14.6578 206.214 12.4785 205.469 12.4785C204.724 12.4785 197.398 9.05389 193.828 7.34158L188.706 7.80856L176.134 15.7474L162.164 14.8134L150.523 19.4834H142.142L139.814 17.6154H121.654L111.875 20.4174L104.425 18.0824L103.96 19.4834C101.631 19.1721 95.6712 18.456 90.456 18.0824C85.2408 17.7088 76.1764 13.5681 72.2961 11.5445H64.8458C63.9146 11.5445 62.5177 13.8795 61.5864 13.8795C60.8414 13.8795 4.5 17.6154 0 24.5L-7 38.5Z" fill="white"/>
</g>
<defs>
<clipPath id="clip0_345_16326">
<rect width="1450" height="92" fill="white" transform="matrix(1 0 0 -1 -5 92)"/>
</clipPath>
</defs>
</svg>
