<svg width="1440" height="92" viewBox="0 0 1440 92" fill="none" xmlns="http://www.w3.org/2000/svg">
<g clip-path="url(#clip0_345_16324)">
<path d="M-7 53.5C-7 53.5 -21 48.0006 -22 44.0006L-43.5 80.4555L-37 94.0007H1445V42.1621H1429.63L1425.44 48.7L1413.34 50.101L1403.56 42.6291H1368.64L1359.79 48.7L1348.15 44.4971L1338.83 46.832L1332.32 44.4971L1319.28 46.832L1311.36 44.4971L1307.17 46.832H1298.79L1289.94 50.101L1261.54 51.035L1246.17 48.7L1207.06 50.101L1194.02 46.832L1189.83 48.7L1184.71 46.832H1140.94L1133.02 44.4971C1119.61 54.9577 1109.12 57.2615 1105.55 57.1059L1100.89 54.7709H1081.8L1078.08 50.101L1067.83 53.3699L1062.71 51.035L1050.14 54.7709H1039.43L1024.99 58.5068L992.865 61.3088L979.361 69.7147L965.392 66.9127L950.491 63.1768C948.008 63.4881 942.575 64.1107 940.713 64.1107C938.85 64.1107 933.418 62.2428 930.935 61.3088H920.69L917.897 63.1768L909.981 62.2428L905.324 58.5068L895.08 66.9127L887.164 65.5117L882.042 66.9127L872.264 64.1107L863.417 66.9127L855.501 65.5117H848.516H805.212L795.434 63.1768L788.449 58.5068H782.396L770.755 61.3088L755.854 62.2428L753.526 65.5117H741.419L735.366 63.1768C732.883 62.8654 727.73 62.2428 726.985 62.2428C726.24 62.2428 715.809 62.8654 710.687 63.1768L682.749 54.7709L673.902 58.5068L661.329 54.7709L656.673 59.4408H645.498L640.376 61.3088L628.269 58.0399L618.491 46.365L615.231 46.832L612.437 45.431L611.972 42.6291H607.781L603.59 46.365L599.399 43.5631L595.209 46.365H591.949C591.577 46.365 586.827 43.5631 584.499 42.1621L574.255 44.9641C571.306 44.6527 565.222 44.0301 564.477 44.0301C563.732 44.0301 562.614 43.0961 562.148 42.6291H532.347L524.897 48.7L522.103 49.167C520.613 48.4198 518.068 46.9877 516.981 46.365L487.18 45.431L483.921 43.5631C481.438 43.2518 476.378 42.6291 476.005 42.6291C475.633 42.6291 467.468 44.497 463.433 45.431L459.242 42.6291H425.716L423.388 45.431H420.594V42.6291H382.412L373.099 44.4971L361.458 43.5631L357.267 44.4971H333.52L328.398 50.101L318.619 51.9689L316.291 49.167L289.284 56.1719C288.042 58.3512 285.466 62.7098 285.093 62.7098C284.721 62.7098 279.661 64.2664 277.177 65.0447L272.987 62.7098L269.727 65.9787L266.933 64.1107H263.208L255.292 71.1156L248.308 73.4506L243.651 77.6535L236.201 79.0545L219.438 76.2526C215.092 77.3422 206.214 79.5215 205.469 79.5215C204.724 79.5215 197.398 82.9461 193.828 84.6584L188.706 84.1914L176.134 76.2526L162.164 77.1866L150.523 72.5166H142.142L139.814 74.3846H121.654L111.875 71.5826L104.425 73.9176L103.96 72.5166C101.631 72.8279 95.6712 73.544 90.456 73.9176C85.2408 74.2912 76.1764 78.4319 72.2961 80.4555H64.8458C63.9146 80.4555 62.5177 78.1205 61.5864 78.1205C60.8414 78.1205 4.5 74.3846 0 67.5L-7 53.5Z" fill="white"/>
</g>
<defs>
<clipPath id="clip0_345_16324">
<rect width="1450" height="92" fill="white" transform="translate(-5)"/>
</clipPath>
</defs>
</svg>
