<svg width="390" height="65" viewBox="0 0 390 65" fill="none" xmlns="http://www.w3.org/2000/svg">
<g clip-path="url(#clip0_393_9026)">
<path d="M20.8292 42.1418L16.1729 46.8117L4 42.1418L-1 43.5L-2 66.8709H747.058V30H728.135L719.288 36.0709L707.647 31.868L698.334 34.2029L691.815 31.868L678.777 34.2029L670.861 31.868L666.671 34.2029H658.289L649.442 37.4719L621.038 38.4059L605.672 36.0709L566.558 37.4719L553.52 34.2029L549.33 36.0709L544.208 34.2029H500.438L492.522 31.868C479.111 42.3286 468.619 44.6324 465.049 44.4768L460.392 42.1418H441.301L437.576 37.4719L427.332 40.7408L422.21 38.4059L409.638 42.1418H398.928L384.493 45.8777L352.364 48.6797L338.861 57.0856L324.892 54.2836L309.991 50.5477C307.508 50.859 302.075 51.4817 300.213 51.4817C298.35 51.4817 292.918 49.6137 290.434 48.6797H280.19L277.396 50.5477L269.48 49.6137L264.824 45.8777L254.58 54.2836L246.664 52.8826L241.542 54.2836L231.764 51.4817L222.917 54.2836L215.001 52.8826H208.016H164.712L154.933 50.5477L147.949 45.8777H141.895L130.254 48.6797L115.354 49.6137L113.026 52.8826H100.919L94.8658 50.5477C92.3824 50.2363 87.2294 49.6137 86.4844 49.6137C85.7393 49.6137 75.309 50.2363 70.187 50.5477L42.2487 42.1418L33.4015 45.8777L20.8292 42.1418Z" fill="white"/>
</g>
<defs>
<clipPath id="clip0_393_9026">
<rect width="390" height="65" fill="white"/>
</clipPath>
</defs>
</svg>
