<svg width="1467" height="99" viewBox="0 0 1467 99" fill="none" xmlns="http://www.w3.org/2000/svg">
<path d="M271 49.5C271 76.8381 248.838 99 221.5 99C194.162 99 172 76.8381 172 49.5C172 22.1619 194.162 0 221.5 0C248.838 0 271 22.1619 271 49.5Z" fill="white"/>
<path d="M370 49.5C370 76.8381 347.838 99 320.5 99C293.162 99 271 76.8381 271 49.5C271 22.1619 293.162 0 320.5 0C347.838 0 370 22.1619 370 49.5Z" fill="white"/>
<path d="M666 49.5C666 76.8381 643.838 99 616.5 99C589.162 99 567 76.8381 567 49.5C567 22.1619 589.162 0 616.5 0C643.838 0 666 22.1619 666 49.5Z" fill="white"/>
<path d="M1017 49.5C1017 76.8381 994.838 99 967.5 99C940.162 99 918 76.8381 918 49.5C918 22.1619 940.162 0 967.5 0C994.838 0 1017 22.1619 1017 49.5Z" fill="white"/>
<path d="M1116 49.5C1116 76.8381 1093.84 99 1066.5 99C1039.16 99 1017 76.8381 1017 49.5C1017 22.1619 1039.16 0 1066.5 0C1093.84 0 1116 22.1619 1116 49.5Z" fill="white"/>
<path d="M1215 49.5C1215 76.8381 1192.84 99 1165.5 99C1138.16 99 1116 76.8381 1116 49.5C1116 22.1619 1138.16 0 1165.5 0C1192.84 0 1215 22.1619 1215 49.5Z" fill="white"/>
<path d="M0 49.5C0 22.1619 22.1619 0 49.5 0H122.5C149.838 0 172 22.1619 172 49.5C172 76.8381 149.838 99 122.5 99H49.5C22.1619 99 0 76.8381 0 49.5Z" fill="white"/>
<path d="M370 49.5C370 22.1619 392.162 0 419.5 0H517.5C544.838 0 567 22.1619 567 49.5C567 76.8381 544.838 99 517.5 99H419.5C392.162 99 370 76.8381 370 49.5Z" fill="white"/>
<path d="M666 49.5C666 22.1619 688.162 0 715.5 0H868.5C895.838 0 918 22.1619 918 49.5C918 76.8381 895.838 99 868.5 99H715.5C688.162 99 666 76.8381 666 49.5Z" fill="white"/>
<path d="M1215 49.5C1215 22.1619 1237.16 0 1264.5 0H1417.5C1444.84 0 1467 22.1619 1467 49.5C1467 76.8381 1444.84 99 1417.5 99H1264.5C1237.16 99 1215 76.8381 1215 49.5Z" fill="white"/>
</svg>
