<svg width="56" height="56" viewBox="0 0 56 56" fill="none" xmlns="http://www.w3.org/2000/svg">
<rect x="4" y="4" width="48" height="48" rx="24" fill="#E5FFAD"/>
<g clip-path="url(#clip0_539_18065)">
<path d="M26.5 16L26.4236 16.6108C26.3458 17.2319 25.8995 17.7442 25.2944 17.9059C24.7725 18.0615 24.035 17.8554 23.6706 17.3481L23.2989 16.8578L20.7011 18.3578L20.9411 18.9264C21.1839 19.503 21.0541 20.1691 20.6116 20.6116C20.1824 21.0339 19.528 21.187 18.9264 20.9411L18.3578 20.7011L16.8578 23.2989L17.3481 23.6706C17.8469 24.048 18.0677 24.6902 17.9059 25.2944C17.7513 25.8611 17.2637 26.3366 16.6108 26.4236L16 26.5V29.5L16.6108 29.5764C17.2319 29.6542 17.7442 30.1005 17.9059 30.7056C18.0614 31.2275 17.8554 31.965 17.3481 32.3294L16.8578 32.7011L18.3578 35.2989L18.9264 35.0589C19.503 34.8161 20.1691 34.9459 20.6116 35.3884C21.0339 35.8176 21.187 36.472 20.9411 37.0736L20.7011 37.6422L23.2989 39.1422L23.6706 38.6519C24.048 38.1531 24.6902 37.9323 25.2944 38.0941C25.8611 38.2487 26.3366 38.7363 26.4236 39.3892L26.5 40H28L29.0477 28.0002L28 16L26.5 16Z" fill="#A5C700"/>
<path d="M29.5 16L29.5764 16.6108C29.6542 17.2319 30.1005 17.7442 30.7056 17.9059C31.2275 18.0615 31.965 17.8554 32.3294 17.3481L32.7011 16.8578L35.2989 18.3578L35.0589 18.9264C34.8161 19.503 34.9459 20.1691 35.3884 20.6116C35.8176 21.0339 36.472 21.187 37.0736 20.9411L37.6422 20.7011L39.1422 23.2989L38.6519 23.6706C38.1531 24.048 37.9323 24.6902 38.0941 25.2944C38.2487 25.8611 38.7363 26.3366 39.3892 26.4236L40 26.5V29.5L39.3892 29.5764C38.7681 29.6542 38.2558 30.1005 38.0941 30.7056C37.9386 31.2275 38.1446 31.965 38.6519 32.3294L39.1422 32.7011L37.6422 35.2989L37.0736 35.0589C36.497 34.8161 35.8309 34.9459 35.3884 35.3884C34.9661 35.8176 34.813 36.472 35.0589 37.0736L35.2989 37.6422L32.7011 39.1422L32.3294 38.6519C31.952 38.1531 31.3098 37.9323 30.7056 38.0941C30.1389 38.2487 29.6634 38.7363 29.5764 39.3892L29.5 40H28V16L29.5 16Z" fill="#768E00"/>
<path d="M30.0953 27.9999L28 34.5598L26.1831 35.83C22.6197 35.0068 19.9637 31.8137 19.9637 27.9999C19.9637 23.5614 23.5614 19.9637 28 19.9637L29.8539 27.0742L30.0953 27.9999Z" fill="#BCE300"/>
<path d="M36.0363 27.9999C36.0363 31.8137 33.3803 35.0068 29.8169 35.83L28 34.5598V19.9637C32.4386 19.9637 36.0363 23.5614 36.0363 27.9999Z" fill="#BCE300"/>
<path d="M28.8274 31.9694L28 29.2239L26.1461 27.9855V23.8984C24.5856 24.6048 23.5 26.1756 23.5 28C23.5 29.8389 24.603 31.4195 26.1831 32.118V35.83C26.7672 35.965 27.3752 36.0363 28 36.0363L28.8274 31.9694Z" fill="#252525" fill-opacity="0.8"/>
<path d="M32.5 28C32.5 29.8389 31.397 31.4195 29.8169 32.118V35.83C29.2328 35.965 28.6248 36.0363 28 36.0363V29.2239L29.8539 27.9855V23.8984C31.4144 24.6048 32.5 26.1756 32.5 28Z" fill="#111214"/>
</g>
<rect x="4" y="4" width="48" height="48" rx="24" stroke="#F3FEE2" stroke-width="8"/>
<defs>
<clipPath id="clip0_539_18065">
<rect width="24" height="24" fill="white" transform="translate(16 16)"/>
</clipPath>
</defs>
</svg>
