<svg width="197" height="85" viewBox="0 0 197 85" fill="none" xmlns="http://www.w3.org/2000/svg">
<path d="M55.1821 83.332H35.9013V67.8926H0.48584V58.8558L32.8646 2.11072H55.1455V50.9898H62.0969V67.9292H55.1455V83.3686L55.1821 83.332ZM23.7181 50.9532H36.7062V38.77L38.2061 26.3673H37.9866L23.7181 50.9898V50.9532Z" fill="#BCE300"/>
<path d="M128.903 28.5257V56.9532C128.903 74.6975 115.22 84.9416 98.3902 84.9416C81.5606 84.9416 68.0969 74.7341 68.0969 56.9532V28.5257C68.0969 10.7815 81.9265 0.537354 98.3902 0.537354C114.854 0.537354 128.903 10.7449 128.903 28.5257ZM109.293 56.5142V28.8916C109.293 22.4891 104.537 19.1597 98.3902 19.1597C92.2438 19.1597 87.8169 22.5256 87.8169 28.8916V56.5142C87.8169 63.1362 92.4633 66.5022 98.3902 66.5022C104.317 66.5022 109.293 63.1362 109.293 56.5142Z" fill="#BCE300"/>
<path d="M189.6 83.3318H170.319V67.8925H134.903V58.8557L167.282 2.1106H189.563V50.9897H196.514V67.9291H189.563V83.3684L189.6 83.3318ZM158.136 50.9531H171.124V38.7699L172.624 26.3672H172.404L158.136 50.9897V50.9531Z" fill="#BCE300"/>
</svg>
